<?xml version="1.0" standalone="no"?>
<!DOCTYPE svg PUBLIC "-//W3C//DTD SVG 20010904//EN"
 "http://www.w3.org/TR/2001/REC-SVG-20010904/DTD/svg10.dtd">
<svg version="1.0" xmlns="http://www.w3.org/2000/svg"
 width="1350.000000pt" height="1350.000000pt" viewBox="0 0 1350.000000 1350.000000"
 preserveAspectRatio="xMidYMid meet">
<metadata>
Created by potrace 1.10, written by Peter Selinger 2001-2011
</metadata>
<g transform="translate(0.000000,1350.000000) scale(0.100000,-0.100000)"
fill="#000000" stroke="none">
<path d="M6405 11909 c-82 -4 -199 -15 -260 -23 -60 -8 -134 -18 -163 -21
-164 -18 -599 -119 -817 -190 -663 -215 -1285 -563 -1810 -1014 -134 -115
-430 -411 -541 -541 -315 -369 -533 -704 -740 -1135 -136 -283 -208 -473 -323
-850 -47 -151 -124 -527 -141 -685 -6 -52 -15 -124 -20 -160 -15 -104 -30
-381 -30 -560 0 -152 23 -539 34 -571 3 -8 10 -59 16 -114 13 -131 52 -333
100 -525 53 -213 63 -248 109 -385 71 -210 96 -279 141 -380 5 -11 25 -58 46
-105 200 -458 465 -878 808 -1280 115 -134 420 -440 556 -556 264 -226 556
-429 855 -594 141 -78 328 -173 395 -200 25 -10 108 -43 185 -74 148 -60 433
-158 525 -181 30 -7 98 -24 150 -38 433 -112 911 -166 1360 -154 212 6 612 39
680 56 19 5 82 17 140 26 58 9 134 23 170 31 148 35 197 47 240 59 25 8 95 28
155 46 264 77 573 199 820 323 1005 504 1817 1314 2319 2316 78 154 197 440
264 630 82 233 161 535 197 750 8 52 22 133 30 180 32 190 54 500 55 745 0
249 -24 576 -55 765 -8 47 -22 128 -30 180 -29 170 -67 326 -135 555 -205 685
-555 1326 -1024 1875 -113 133 -419 438 -556 556 -247 212 -553 427 -830 584
-183 104 -590 291 -770 355 -100 35 -288 97 -340 111 -220 61 -575 138 -690
150 -30 3 -100 12 -155 20 -214 30 -603 40 -920 23z m760 -514 c177 -16 408
-50 535 -80 400 -95 531 -137 855 -273 557 -234 1018 -541 1458 -971 113 -110
300 -316 373 -411 205 -265 289 -389 420 -622 48 -86 224 -445 224 -458 0 -6
9 -29 21 -52 17 -34 69 -171 118 -313 30 -87 73 -234 99 -345 48 -200 60 -258
77 -375 9 -60 23 -148 30 -195 8 -47 20 -192 26 -323 13 -260 1 -621 -26 -787
-7 -47 -21 -134 -30 -195 -29 -203 -121 -575 -181 -735 -7 -19 -31 -84 -53
-145 -63 -176 -108 -277 -216 -490 -233 -459 -467 -785 -829 -1153 -389 -396
-761 -665 -1275 -922 -244 -121 -516 -223 -875 -325 -101 -29 -274 -64 -439
-90 -87 -13 -184 -29 -215 -34 -31 -5 -162 -15 -289 -21 -258 -13 -627 -1
-788 25 -49 8 -139 21 -200 30 -60 9 -135 22 -165 30 -30 7 -73 16 -95 20
-116 18 -392 101 -665 200 -233 85 -594 264 -810 403 -324 207 -596 428 -861
698 -262 269 -462 529 -656 852 -198 332 -363 701 -463 1042 -17 58 -37 125
-45 150 -7 25 -21 79 -30 120 -9 41 -20 92 -26 113 -25 95 -71 399 -86 567
-39 447 -5 1006 83 1380 52 223 85 348 114 439 50 150 146 406 160 426 3 6 15
32 25 59 31 85 187 384 282 541 360 598 890 1137 1488 1514 347 218 770 412
1135 520 58 17 125 37 150 45 25 8 79 21 120 31 41 9 102 23 135 31 124 29
356 64 535 78 102 9 205 18 230 20 88 8 448 -3 625 -19z"/>
<path d="M7034 9591 c-66 -33 -312 -154 -549 -270 -236 -117 -448 -221 -470
-233 -22 -12 -47 -25 -55 -29 -8 -5 -197 -99 -420 -209 -223 -110 -411 -209
-419 -220 -13 -20 -11 -20 125 -20 75 0 151 4 168 9 17 5 58 17 91 27 33 9 80
23 105 30 25 7 74 20 110 29 36 10 77 22 91 27 15 5 53 15 85 23 33 7 75 18
94 23 19 6 71 20 115 32 44 12 96 26 115 31 19 6 53 15 75 20 65 17 67 18 140
39 39 11 88 24 110 30 112 26 185 46 191 53 4 4 17 7 29 7 12 0 25 3 29 7 4 5
40 15 79 25 40 9 90 22 112 28 22 6 69 18 105 26 35 8 69 19 75 24 5 4 31 11
58 15 26 4 50 11 53 16 3 5 18 9 34 9 16 0 39 4 52 9 13 4 57 18 98 30 41 12
89 27 106 32 17 5 37 9 46 9 9 0 21 7 28 14 9 12 1 37 -44 128 -91 184 -110
208 -190 253 -60 33 -68 35 -158 35 l-95 0 -119 -59z"/>
<path d="M8277 9214 c-3 -4 -23 -10 -44 -14 -21 -5 -72 -17 -113 -29 -41 -11
-113 -29 -160 -41 -47 -12 -98 -26 -115 -31 -28 -10 -93 -28 -175 -49 -100
-26 -157 -42 -175 -49 -11 -5 -47 -15 -80 -22 -33 -7 -82 -20 -110 -30 -27 -9
-86 -25 -130 -34 -44 -9 -87 -21 -96 -25 -9 -5 -54 -18 -100 -30 -46 -11 -106
-28 -133 -36 -26 -7 -56 -14 -65 -14 -10 0 -26 -7 -37 -15 -10 -8 -36 -15 -56
-15 -20 0 -39 -4 -42 -9 -3 -5 -26 -12 -51 -15 -25 -4 -57 -14 -73 -22 -15 -7
-36 -14 -47 -14 -11 0 -54 -10 -95 -21 -41 -12 -102 -29 -135 -38 -65 -17 -85
-27 -85 -42 0 -12 2587 -12 2594 0 7 10 -5 65 -35 171 -11 41 -23 89 -26 105
-3 17 -9 35 -13 40 -4 6 -11 26 -15 45 -19 88 -116 195 -204 224 -49 16 -171
22 -184 10z"/>
<path d="M4285 8382 c-84 -29 -139 -78 -179 -159 l-36 -72 0 -1841 0 -1840 29
-63 c32 -72 102 -140 173 -168 41 -17 180 -18 2465 -18 2260 -1 2425 0 2465
16 92 37 140 84 184 181 l24 53 0 473 c0 423 -2 475 -16 480 -9 3 -426 6 -927
6 -502 0 -953 4 -1002 9 -84 8 -126 21 -200 59 -129 67 -239 215 -268 362 -13
70 -14 821 0 910 17 109 97 245 186 317 23 18 76 50 117 71 l75 37 1004 3
c709 2 1009 6 1018 14 10 8 13 103 13 475 l0 466 -32 64 c-37 76 -100 134
-176 163 -52 20 -79 20 -2460 20 -2259 -1 -2410 -2 -2457 -18z"/>
<path d="M7455 6989 c-108 -36 -177 -87 -218 -164 -22 -39 -22 -50 -25 -490
-2 -402 -1 -455 14 -494 21 -55 70 -110 137 -153 l52 -33 1038 -3 1039 -2 58
26 c69 31 117 79 159 158 l31 59 0 427 0 427 -25 44 c-13 24 -29 55 -35 68
-13 29 -41 55 -96 87 -94 56 -58 54 -1119 53 -617 0 -991 -4 -1010 -10z m613
-478 c9 -5 25 -12 34 -15 10 -3 31 -24 48 -47 28 -39 30 -47 30 -133 0 -106
-19 -157 -72 -190 -28 -18 -49 -21 -135 -21 -87 0 -105 3 -129 21 -48 35 -65
68 -71 131 -12 136 17 215 91 248 36 15 178 20 204 6z"/>
</g>
</svg>
